<svg xmlns="http://www.w3.org/2000/svg" width="44" height="28" viewBox="0 0 44 28" fill="none">
<path fill-rule="evenodd" clip-rule="evenodd" d="M44 14C44 13.5157 43.8068 13.0512 43.463 12.7088C43.1191 12.3663 42.6528 12.1739 42.1665 12.1739H1.8335C1.34723 12.1739 0.880868 12.3663 0.53702 12.7088C0.193172 13.0512 0 13.5157 0 14C0 14.4843 0.193172 14.9488 0.53702 15.2912C0.880868 15.6337 1.34723 15.8261 1.8335 15.8261H42.1665C42.6528 15.8261 43.1191 15.6337 43.463 15.2912C43.8068 14.9488 44 14.4843 44 14ZM44 1.82609C44 1.34178 43.8068 0.877306 43.463 0.534848C43.1191 0.192391 42.6528 0 42.1665 0H1.8335C1.34723 0 0.880868 0.192391 0.53702 0.534848C0.193172 0.877306 0 1.34178 0 1.82609C0 2.3104 0.193172 2.77487 0.53702 3.11733C0.880868 3.45978 1.34723 3.65217 1.8335 3.65217H42.1665C42.6528 3.65217 43.1191 3.45978 43.463 3.11733C43.8068 2.77487 44 2.3104 44 1.82609ZM44 26.1739C44 25.6896 43.8068 25.2251 43.463 24.8827C43.1191 24.5402 42.6528 24.3478 42.1665 24.3478H1.8335C1.34723 24.3478 0.880868 24.5402 0.53702 24.8827C0.193172 25.2251 0 25.6896 0 26.1739C0 26.6582 0.193172 27.1227 0.53702 27.4652C0.880868 27.8076 1.34723 28 1.8335 28H42.1665C42.6528 28 43.1191 27.8076 43.463 27.4652C43.8068 27.1227 44 26.6582 44 26.1739Z" fill="white"/>
</svg>