<svg xmlns="http://www.w3.org/2000/svg" width="26" height="26" viewBox="0 0 26 26" fill="none">
<path d="M9.30692 6.9804C10.8278 2.87018 11.5883 0.815073 12.9244 0.764514C12.9748 0.762607 13.0252 0.762607 13.0756 0.764514C14.4117 0.815073 15.1722 2.87018 16.6931 6.9804C16.9973 7.80246 17.1494 8.21349 17.445 8.51713C17.4574 8.52993 17.4701 8.54257 17.4829 8.55503C17.7865 8.85063 18.1975 9.00273 19.0196 9.30692C23.1298 10.8278 25.1849 11.5883 25.2355 12.9244C25.2374 12.9748 25.2374 13.0252 25.2355 13.0756C25.1849 14.4117 23.1298 15.1722 19.0196 16.6931C18.1975 16.9973 17.7865 17.1494 17.4829 17.445C17.4701 17.4574 17.4574 17.4701 17.445 17.4829C17.1494 17.7865 16.9973 18.1975 16.6931 19.0196C15.1722 23.1298 14.4117 25.1849 13.0756 25.2355C13.0252 25.2374 12.9748 25.2374 12.9244 25.2355C11.5883 25.1849 10.8278 23.1298 9.30692 19.0196C9.00273 18.1975 8.85063 17.7865 8.55503 17.4829C8.54257 17.4701 8.52993 17.4574 8.51713 17.445C8.21349 17.1494 7.80246 16.9973 6.9804 16.6931C2.87018 15.1722 0.815073 14.4117 0.764514 13.0756C0.762607 13.0252 0.762607 12.9748 0.764514 12.9244C0.815073 11.5883 2.87018 10.8278 6.9804 9.30692C7.80246 9.00273 8.21349 8.85063 8.51713 8.55503C8.52993 8.54257 8.54257 8.52993 8.55503 8.51713C8.85063 8.21349 9.00273 7.80246 9.30692 6.9804Z" fill="#6A41FB"/>
</svg>