<svg xmlns="http://www.w3.org/2000/svg" width="24" height="30" viewBox="0 0 24 30" fill="none">
<path d="M11.8232 0.811768C19.4404 0.811774 23.4189 6.00666 23.4189 13.0149V16.9846C23.4189 23.993 19.4405 29.1877 11.8232 29.1877C4.20599 29.1877 0.227539 23.993 0.227539 16.9846V13.0149C0.22762 6.00666 4.20607 0.811768 11.8232 0.811768ZM9.25879 6.52368C6.7446 6.34626 4.56284 8.27768 4.38574 10.8381C4.20867 13.3985 6.10311 15.6176 8.61719 15.7952C8.6945 15.8006 8.772 15.8044 8.84863 15.8059C8.94983 15.8079 9.05089 15.8191 9.14746 15.8499C9.99616 16.1207 10.8435 16.7862 10.6689 18.1975L10.6699 18.1985H10.6709C10.6663 18.2453 10.6624 18.2928 10.6592 18.3401C10.4824 20.9004 12.3776 23.1197 14.8916 23.2971C17.4056 23.4743 19.5876 21.542 19.7646 18.9817C19.9415 16.4214 18.0463 14.2021 15.5322 14.0247C15.12 13.9956 14.6935 13.9931 14.3291 13.7952C14.1116 13.6769 13.8963 13.517 13.7197 13.3088C13.3085 12.8239 13.446 12.1202 13.4902 11.4807C13.6673 8.92029 11.7729 6.70118 9.25879 6.52368Z" fill="white"/>
</svg>